<svg width="315" height="208" viewBox="0 0 315 208" fill="none" xmlns="http://www.w3.org/2000/svg">
<rect x="36" y="181" width="279" height="1" fill="#E0E4E8"/>
<path d="M6.26367 176.705C6.26367 178.186 6.0293 179.291 5.56055 180.021C5.0957 180.752 4.38281 181.117 3.42188 181.117C2.5 181.117 1.79883 180.744 1.31836 179.998C0.837891 179.248 0.597656 178.15 0.597656 176.705C0.597656 175.213 0.830078 174.105 1.29492 173.383C1.75977 172.66 2.46875 172.299 3.42188 172.299C4.35156 172.299 5.05664 172.676 5.53711 173.43C6.02148 174.184 6.26367 175.275 6.26367 176.705ZM1.58203 176.705C1.58203 177.951 1.72852 178.859 2.02148 179.43C2.31445 179.996 2.78125 180.279 3.42188 180.279C4.07031 180.279 4.53906 179.992 4.82812 179.418C5.12109 178.84 5.26758 177.936 5.26758 176.705C5.26758 175.475 5.12109 174.574 4.82812 174.004C4.53906 173.43 4.07031 173.143 3.42188 173.143C2.78125 173.143 2.31445 173.426 2.02148 173.992C1.72852 174.555 1.58203 175.459 1.58203 176.705Z" fill="#7589A2"/>
<rect x="36" y="139" width="279" height="1" fill="#E0E4E8"/>
<path d="M6.2168 139H0.585938V138.162L2.8418 135.895C3.5293 135.199 3.98242 134.703 4.20117 134.406C4.41992 134.109 4.58398 133.82 4.69336 133.539C4.80273 133.258 4.85742 132.955 4.85742 132.631C4.85742 132.174 4.71875 131.812 4.44141 131.547C4.16406 131.277 3.7793 131.143 3.28711 131.143C2.93164 131.143 2.59375 131.201 2.27344 131.318C1.95703 131.436 1.60352 131.648 1.21289 131.957L0.697266 131.295C1.48633 130.639 2.3457 130.311 3.27539 130.311C4.08008 130.311 4.71094 130.518 5.16797 130.932C5.625 131.342 5.85352 131.895 5.85352 132.59C5.85352 133.133 5.70117 133.67 5.39648 134.201C5.0918 134.732 4.52148 135.404 3.68555 136.217L1.81055 138.051V138.098H6.2168V139ZM10.1309 133.768C11.0332 133.768 11.7422 133.992 12.2578 134.441C12.7773 134.887 13.0371 135.498 13.0371 136.275C13.0371 137.162 12.7539 137.857 12.1875 138.361C11.625 138.865 10.8477 139.117 9.85547 139.117C8.89062 139.117 8.1543 138.963 7.64648 138.654V137.717C7.91992 137.893 8.25977 138.031 8.66602 138.133C9.07227 138.23 9.47266 138.279 9.86719 138.279C10.5547 138.279 11.0879 138.117 11.4668 137.793C11.8496 137.469 12.041 137 12.041 136.387C12.041 135.191 11.3086 134.594 9.84375 134.594C9.47266 134.594 8.97656 134.65 8.35547 134.764L7.85156 134.441L8.17383 130.434H12.4336V131.33H9.00586L8.78906 133.902C9.23828 133.812 9.68555 133.768 10.1309 133.768Z" fill="#7589A2"/>
<rect x="36" y="97" width="279" height="1" fill="#E0E4E8"/>
<path d="M3.26367 91.7676C4.16602 91.7676 4.875 91.9922 5.39062 92.4414C5.91016 92.8867 6.16992 93.498 6.16992 94.2754C6.16992 95.1621 5.88672 95.8574 5.32031 96.3613C4.75781 96.8652 3.98047 97.1172 2.98828 97.1172C2.02344 97.1172 1.28711 96.9629 0.779297 96.6543V95.7168C1.05273 95.8926 1.39258 96.0312 1.79883 96.1328C2.20508 96.2305 2.60547 96.2793 3 96.2793C3.6875 96.2793 4.2207 96.1172 4.59961 95.793C4.98242 95.4688 5.17383 95 5.17383 94.3867C5.17383 93.1914 4.44141 92.5938 2.97656 92.5938C2.60547 92.5938 2.10938 92.6504 1.48828 92.7637L0.984375 92.4414L1.30664 88.4336H5.56641V89.3301H2.13867L1.92188 91.9023C2.37109 91.8125 2.81836 91.7676 3.26367 91.7676ZM13.1309 92.7051C13.1309 94.1855 12.8965 95.291 12.4277 96.0215C11.9629 96.752 11.25 97.1172 10.2891 97.1172C9.36719 97.1172 8.66602 96.7441 8.18555 95.998C7.70508 95.248 7.46484 94.1504 7.46484 92.7051C7.46484 91.2129 7.69727 90.1055 8.16211 89.3828C8.62695 88.6602 9.33594 88.2988 10.2891 88.2988C11.2188 88.2988 11.9238 88.6758 12.4043 89.4297C12.8887 90.1836 13.1309 91.2754 13.1309 92.7051ZM8.44922 92.7051C8.44922 93.9512 8.5957 94.8594 8.88867 95.4297C9.18164 95.9961 9.64844 96.2793 10.2891 96.2793C10.9375 96.2793 11.4062 95.9922 11.6953 95.418C11.9883 94.8398 12.1348 93.9355 12.1348 92.7051C12.1348 91.4746 11.9883 90.5742 11.6953 90.0039C11.4062 89.4297 10.9375 89.1426 10.2891 89.1426C9.64844 89.1426 9.18164 89.4258 8.88867 89.9922C8.5957 90.5547 8.44922 91.459 8.44922 92.7051Z" fill="#7589A2"/>
<rect x="36" y="55" width="279" height="1" fill="#E0E4E8"/>
<path d="M1.66992 55L5.2207 47.3301H0.550781V46.4336H6.25195V47.2129L2.74805 55H1.66992ZM10.1309 49.7676C11.0332 49.7676 11.7422 49.9922 12.2578 50.4414C12.7773 50.8867 13.0371 51.498 13.0371 52.2754C13.0371 53.1621 12.7539 53.8574 12.1875 54.3613C11.625 54.8652 10.8477 55.1172 9.85547 55.1172C8.89062 55.1172 8.1543 54.9629 7.64648 54.6543V53.7168C7.91992 53.8926 8.25977 54.0312 8.66602 54.1328C9.07227 54.2305 9.47266 54.2793 9.86719 54.2793C10.5547 54.2793 11.0879 54.1172 11.4668 53.793C11.8496 53.4688 12.041 53 12.041 52.3867C12.041 51.1914 11.3086 50.5938 9.84375 50.5938C9.47266 50.5938 8.97656 50.6504 8.35547 50.7637L7.85156 50.4414L8.17383 46.4336H12.4336V47.3301H9.00586L8.78906 49.9023C9.23828 49.8125 9.68555 49.7676 10.1309 49.7676Z" fill="#7589A2"/>
<rect x="36" y="13" width="279" height="1" fill="#E0E4E8"/>
<path d="M4.18945 13H3.24023V6.89453C3.24023 6.38672 3.25586 5.90625 3.28711 5.45312C3.20508 5.53516 3.11328 5.62109 3.01172 5.71094C2.91016 5.80078 2.44531 6.18164 1.61719 6.85352L1.10156 6.18555L3.36914 4.43359H4.18945V13ZM13.1309 8.70508C13.1309 10.1855 12.8965 11.291 12.4277 12.0215C11.9629 12.752 11.25 13.1172 10.2891 13.1172C9.36719 13.1172 8.66602 12.7441 8.18555 11.998C7.70508 11.248 7.46484 10.1504 7.46484 8.70508C7.46484 7.21289 7.69727 6.10547 8.16211 5.38281C8.62695 4.66016 9.33594 4.29883 10.2891 4.29883C11.2188 4.29883 11.9238 4.67578 12.4043 5.42969C12.8887 6.18359 13.1309 7.27539 13.1309 8.70508ZM8.44922 8.70508C8.44922 9.95117 8.5957 10.8594 8.88867 11.4297C9.18164 11.9961 9.64844 12.2793 10.2891 12.2793C10.9375 12.2793 11.4062 11.9922 11.6953 11.418C11.9883 10.8398 12.1348 9.93555 12.1348 8.70508C12.1348 7.47461 11.9883 6.57422 11.6953 6.00391C11.4062 5.42969 10.9375 5.14258 10.2891 5.14258C9.64844 5.14258 9.18164 5.42578 8.88867 5.99219C8.5957 6.55469 8.44922 7.45898 8.44922 8.70508ZM19.998 8.70508C19.998 10.1855 19.7637 11.291 19.2949 12.0215C18.8301 12.752 18.1172 13.1172 17.1562 13.1172C16.2344 13.1172 15.5332 12.7441 15.0527 11.998C14.5723 11.248 14.332 10.1504 14.332 8.70508C14.332 7.21289 14.5645 6.10547 15.0293 5.38281C15.4941 4.66016 16.2031 4.29883 17.1562 4.29883C18.0859 4.29883 18.791 4.67578 19.2715 5.42969C19.7559 6.18359 19.998 7.27539 19.998 8.70508ZM15.3164 8.70508C15.3164 9.95117 15.4629 10.8594 15.7559 11.4297C16.0488 11.9961 16.5156 12.2793 17.1562 12.2793C17.8047 12.2793 18.2734 11.9922 18.5625 11.418C18.8555 10.8398 19.002 9.93555 19.002 8.70508C19.002 7.47461 18.8555 6.57422 18.5625 6.00391C18.2734 5.42969 17.8047 5.14258 17.1562 5.14258C16.5156 5.14258 16.0488 5.42578 15.7559 5.99219C15.4629 6.55469 15.3164 7.45898 15.3164 8.70508Z" fill="#7589A2"/>
<path d="M49 12C49 8.68629 51.6863 6 55 6C58.3137 6 61 8.68629 61 12V181H49V12Z" fill="#FF5A36"/>
<path d="M60.853 33C60.853 29.6863 63.5393 27 66.853 27C70.1667 27 72.853 29.6863 72.853 33V181H60.853V33Z" fill="#193251"/>
<path d="M106 56C106 52.6863 108.686 50 112 50C115.314 50 118 52.6863 118 56V181H106V56Z" fill="#FF5A36"/>
<path d="M117.853 39C117.853 35.6863 120.539 33 123.853 33C127.167 33 129.853 35.6863 129.853 39V181H117.853V39Z" fill="#193251"/>
<path d="M163 30C163 26.6863 165.686 24 169 24C172.314 24 175 26.6863 175 30V181H163V30Z" fill="#FF5A36"/>
<path d="M174.853 78C174.853 74.6863 177.539 72 180.853 72C184.167 72 186.853 74.6863 186.853 78V181H174.853V78Z" fill="#193251"/>
<path d="M220 115C220 111.686 222.686 109 226 109C229.314 109 232 111.686 232 115V181H220V115Z" fill="#FF5A36"/>
<path d="M231.853 92C231.853 88.6863 234.539 86 237.853 86C241.167 86 243.853 88.6863 243.853 92V181H231.853V92Z" fill="#193251"/>
<path d="M277 140C277 136.686 279.686 134 283 134C286.314 134 289 136.686 289 140V181H277V140Z" fill="#FF5A36"/>
<path d="M288.853 154C288.853 150.686 291.539 148 294.853 148C298.167 148 300.853 150.686 300.853 154V181H288.853V154Z" fill="#193251"/>
<path d="M50.2989 203H49.3497V196.895C49.3497 196.387 49.3653 195.906 49.3965 195.453C49.3145 195.535 49.2227 195.621 49.1212 195.711C49.0196 195.801 48.5547 196.182 47.7266 196.854L47.211 196.186L49.4786 194.434H50.2989V203ZM59.2403 198.705C59.2403 200.186 59.0059 201.291 58.5372 202.021C58.0723 202.752 57.3594 203.117 56.3985 203.117C55.4766 203.117 54.7755 202.744 54.295 201.998C53.8145 201.248 53.5743 200.15 53.5743 198.705C53.5743 197.213 53.8067 196.105 54.2715 195.383C54.7364 194.66 55.4454 194.299 56.3985 194.299C57.3282 194.299 58.0333 194.676 58.5137 195.43C58.9981 196.184 59.2403 197.275 59.2403 198.705ZM54.5587 198.705C54.5587 199.951 54.7051 200.859 54.9981 201.43C55.2911 201.996 55.7579 202.279 56.3985 202.279C57.0469 202.279 57.5157 201.992 57.8047 201.418C58.0977 200.84 58.2442 199.936 58.2442 198.705C58.2442 197.475 58.0977 196.574 57.8047 196.004C57.5157 195.43 57.0469 195.143 56.3985 195.143C55.7579 195.143 55.2911 195.426 54.9981 195.992C54.7051 196.555 54.5587 197.459 54.5587 198.705ZM60.7344 202.379C60.7344 202.117 60.793 201.92 60.9102 201.787C61.0313 201.65 61.2032 201.582 61.4258 201.582C61.6524 201.582 61.8282 201.65 61.9532 201.787C62.0821 201.92 62.1465 202.117 62.1465 202.379C62.1465 202.633 62.0821 202.828 61.9532 202.965C61.8243 203.102 61.6485 203.17 61.4258 203.17C61.2266 203.17 61.0606 203.109 60.9278 202.988C60.7989 202.863 60.7344 202.66 60.7344 202.379ZM60.7344 197.205C60.7344 196.678 60.9649 196.414 61.4258 196.414C61.9063 196.414 62.1465 196.678 62.1465 197.205C62.1465 197.459 62.0821 197.654 61.9532 197.791C61.8243 197.928 61.6485 197.996 61.4258 197.996C61.2266 197.996 61.0606 197.936 60.9278 197.814C60.7989 197.689 60.7344 197.486 60.7344 197.205ZM69.3067 198.705C69.3067 200.186 69.0723 201.291 68.6036 202.021C68.1387 202.752 67.4258 203.117 66.4649 203.117C65.543 203.117 64.8419 202.744 64.3614 201.998C63.8809 201.248 63.6407 200.15 63.6407 198.705C63.6407 197.213 63.8731 196.105 64.338 195.383C64.8028 194.66 65.5118 194.299 66.4649 194.299C67.3946 194.299 68.0997 194.676 68.5801 195.43C69.0645 196.184 69.3067 197.275 69.3067 198.705ZM64.6251 198.705C64.6251 199.951 64.7715 200.859 65.0645 201.43C65.3575 201.996 65.8243 202.279 66.4649 202.279C67.1133 202.279 67.5821 201.992 67.8712 201.418C68.1641 200.84 68.3106 199.936 68.3106 198.705C68.3106 197.475 68.1641 196.574 67.8712 196.004C67.5821 195.43 67.1133 195.143 66.4649 195.143C65.8243 195.143 65.3575 195.426 65.0645 195.992C64.7715 196.555 64.6251 197.459 64.6251 198.705ZM76.1739 198.705C76.1739 200.186 75.9395 201.291 75.4708 202.021C75.0059 202.752 74.293 203.117 73.3321 203.117C72.4102 203.117 71.709 202.744 71.2286 201.998C70.7481 201.248 70.5079 200.15 70.5079 198.705C70.5079 197.213 70.7403 196.105 71.2051 195.383C71.67 194.66 72.379 194.299 73.3321 194.299C74.2618 194.299 74.9669 194.676 75.4473 195.43C75.9317 196.184 76.1739 197.275 76.1739 198.705ZM71.4922 198.705C71.4922 199.951 71.6387 200.859 71.9317 201.43C72.2247 201.996 72.6915 202.279 73.3321 202.279C73.9805 202.279 74.4493 201.992 74.7383 201.418C75.0313 200.84 75.1778 199.936 75.1778 198.705C75.1778 197.475 75.0313 196.574 74.7383 196.004C74.4493 195.43 73.9805 195.143 73.3321 195.143C72.6915 195.143 72.2247 195.426 71.9317 195.992C71.6387 196.555 71.4922 197.459 71.4922 198.705Z" fill="#7589A2"/>
<path d="M107.186 203H106.236V196.895C106.236 196.387 106.252 195.906 106.283 195.453C106.201 195.535 106.109 195.621 106.008 195.711C105.906 195.801 105.442 196.182 104.613 196.854L104.098 196.186L106.365 194.434H107.186V203ZM113.127 197.768C114.029 197.768 114.738 197.992 115.254 198.441C115.774 198.887 116.033 199.498 116.033 200.275C116.033 201.162 115.75 201.857 115.184 202.361C114.621 202.865 113.844 203.117 112.852 203.117C111.887 203.117 111.151 202.963 110.643 202.654V201.717C110.916 201.893 111.256 202.031 111.662 202.133C112.068 202.23 112.469 202.279 112.863 202.279C113.551 202.279 114.084 202.117 114.463 201.793C114.846 201.469 115.037 201 115.037 200.387C115.037 199.191 114.305 198.594 112.84 198.594C112.469 198.594 111.973 198.65 111.352 198.764L110.848 198.441L111.17 194.434H115.43V195.33H112.002L111.785 197.902C112.234 197.812 112.682 197.768 113.127 197.768ZM117.621 202.379C117.621 202.117 117.68 201.92 117.797 201.787C117.918 201.65 118.09 201.582 118.313 201.582C118.539 201.582 118.715 201.65 118.84 201.787C118.969 201.92 119.033 202.117 119.033 202.379C119.033 202.633 118.969 202.828 118.84 202.965C118.711 203.102 118.535 203.17 118.313 203.17C118.113 203.17 117.947 203.109 117.815 202.988C117.686 202.863 117.621 202.66 117.621 202.379ZM117.621 197.205C117.621 196.678 117.852 196.414 118.313 196.414C118.793 196.414 119.033 196.678 119.033 197.205C119.033 197.459 118.969 197.654 118.84 197.791C118.711 197.928 118.535 197.996 118.313 197.996C118.113 197.996 117.947 197.936 117.815 197.814C117.686 197.689 117.621 197.486 117.621 197.205ZM125.824 196.449C125.824 196.996 125.67 197.443 125.361 197.791C125.057 198.139 124.623 198.371 124.061 198.488V198.535C124.748 198.621 125.258 198.84 125.59 199.191C125.922 199.543 126.088 200.004 126.088 200.574C126.088 201.391 125.805 202.02 125.238 202.461C124.672 202.898 123.867 203.117 122.824 203.117C122.371 203.117 121.955 203.082 121.576 203.012C121.201 202.945 120.836 202.826 120.481 202.654V201.729C120.852 201.912 121.246 202.053 121.664 202.15C122.086 202.244 122.484 202.291 122.859 202.291C124.34 202.291 125.08 201.711 125.08 200.551C125.08 199.512 124.264 198.992 122.631 198.992H121.787V198.154H122.643C123.311 198.154 123.84 198.008 124.231 197.715C124.621 197.418 124.817 197.008 124.817 196.484C124.817 196.066 124.672 195.738 124.383 195.5C124.098 195.262 123.709 195.143 123.217 195.143C122.842 195.143 122.488 195.193 122.156 195.295C121.824 195.396 121.445 195.584 121.02 195.857L120.527 195.201C120.879 194.924 121.283 194.707 121.74 194.551C122.201 194.391 122.686 194.311 123.193 194.311C124.026 194.311 124.672 194.502 125.133 194.885C125.594 195.264 125.824 195.785 125.824 196.449ZM133.061 198.705C133.061 200.186 132.826 201.291 132.358 202.021C131.893 202.752 131.18 203.117 130.219 203.117C129.297 203.117 128.596 202.744 128.115 201.998C127.635 201.248 127.395 200.15 127.395 198.705C127.395 197.213 127.627 196.105 128.092 195.383C128.557 194.66 129.266 194.299 130.219 194.299C131.149 194.299 131.854 194.676 132.334 195.43C132.818 196.184 133.061 197.275 133.061 198.705ZM128.379 198.705C128.379 199.951 128.526 200.859 128.818 201.43C129.111 201.996 129.578 202.279 130.219 202.279C130.867 202.279 131.336 201.992 131.625 201.418C131.918 200.84 132.065 199.936 132.065 198.705C132.065 197.475 131.918 196.574 131.625 196.004C131.336 195.43 130.867 195.143 130.219 195.143C129.578 195.143 129.111 195.426 128.818 195.992C128.526 196.555 128.379 197.459 128.379 198.705Z" fill="#7589A2"/>
<path d="M164.072 203H163.123V196.895C163.123 196.387 163.139 195.906 163.17 195.453C163.088 195.535 162.996 195.621 162.895 195.711C162.793 195.801 162.328 196.182 161.5 196.854L160.985 196.186L163.252 194.434H164.072V203ZM167.436 199.338C167.436 197.654 167.762 196.396 168.414 195.564C169.07 194.729 170.039 194.311 171.32 194.311C171.762 194.311 172.11 194.348 172.363 194.422V195.26C172.063 195.162 171.719 195.113 171.332 195.113C170.414 195.113 169.713 195.4 169.229 195.975C168.744 196.545 168.479 197.443 168.432 198.67H168.502C168.932 197.998 169.612 197.662 170.541 197.662C171.311 197.662 171.916 197.895 172.358 198.359C172.803 198.824 173.026 199.455 173.026 200.252C173.026 201.143 172.781 201.844 172.293 202.355C171.809 202.863 171.153 203.117 170.324 203.117C169.438 203.117 168.735 202.785 168.215 202.121C167.695 201.453 167.436 200.525 167.436 199.338ZM170.313 202.291C170.867 202.291 171.297 202.117 171.602 201.77C171.91 201.418 172.065 200.912 172.065 200.252C172.065 199.686 171.922 199.24 171.637 198.916C171.352 198.592 170.926 198.43 170.36 198.43C170.008 198.43 169.686 198.502 169.393 198.646C169.1 198.791 168.865 198.99 168.69 199.244C168.518 199.498 168.432 199.762 168.432 200.035C168.432 200.438 168.51 200.812 168.666 201.16C168.822 201.508 169.043 201.783 169.328 201.986C169.617 202.189 169.945 202.291 170.313 202.291ZM174.508 202.379C174.508 202.117 174.567 201.92 174.684 201.787C174.805 201.65 174.977 201.582 175.199 201.582C175.426 201.582 175.602 201.65 175.727 201.787C175.856 201.92 175.92 202.117 175.92 202.379C175.92 202.633 175.856 202.828 175.727 202.965C175.598 203.102 175.422 203.17 175.199 203.17C175 203.17 174.834 203.109 174.701 202.988C174.572 202.863 174.508 202.66 174.508 202.379ZM174.508 197.205C174.508 196.678 174.738 196.414 175.199 196.414C175.68 196.414 175.92 196.678 175.92 197.205C175.92 197.459 175.856 197.654 175.727 197.791C175.598 197.928 175.422 197.996 175.199 197.996C175 197.996 174.834 197.936 174.701 197.814C174.572 197.689 174.508 197.486 174.508 197.205ZM181.006 203H180.057V196.895C180.057 196.387 180.072 195.906 180.104 195.453C180.022 195.535 179.93 195.621 179.828 195.711C179.727 195.801 179.262 196.182 178.434 196.854L177.918 196.186L180.186 194.434H181.006V203ZM186.947 197.768C187.85 197.768 188.559 197.992 189.074 198.441C189.594 198.887 189.854 199.498 189.854 200.275C189.854 201.162 189.57 201.857 189.004 202.361C188.442 202.865 187.664 203.117 186.672 203.117C185.707 203.117 184.971 202.963 184.463 202.654V201.717C184.737 201.893 185.076 202.031 185.483 202.133C185.889 202.23 186.289 202.279 186.684 202.279C187.371 202.279 187.904 202.117 188.283 201.793C188.666 201.469 188.858 201 188.858 200.387C188.858 199.191 188.125 198.594 186.66 198.594C186.289 198.594 185.793 198.65 185.172 198.764L184.668 198.441L184.99 194.434H189.25V195.33H185.822L185.606 197.902C186.055 197.812 186.502 197.768 186.947 197.768Z" fill="#7589A2"/>
<path d="M220.959 203H220.01V196.895C220.01 196.387 220.026 195.906 220.057 195.453C219.975 195.535 219.883 195.621 219.781 195.711C219.68 195.801 219.215 196.182 218.387 196.854L217.871 196.186L220.139 194.434H220.959V203ZM227.059 194.311C227.84 194.311 228.459 194.492 228.916 194.855C229.373 195.219 229.602 195.721 229.602 196.361C229.602 196.783 229.471 197.168 229.209 197.516C228.948 197.863 228.53 198.18 227.955 198.465C228.651 198.797 229.145 199.146 229.438 199.514C229.731 199.877 229.877 200.299 229.877 200.779C229.877 201.49 229.629 202.059 229.133 202.484C228.637 202.906 227.957 203.117 227.094 203.117C226.18 203.117 225.477 202.918 224.985 202.52C224.492 202.117 224.246 201.549 224.246 200.814C224.246 199.834 224.844 199.07 226.039 198.523C225.5 198.219 225.114 197.891 224.879 197.539C224.645 197.184 224.528 196.787 224.528 196.35C224.528 195.729 224.756 195.234 225.213 194.867C225.674 194.496 226.289 194.311 227.059 194.311ZM225.207 200.838C225.207 201.307 225.369 201.672 225.694 201.934C226.022 202.195 226.481 202.326 227.071 202.326C227.653 202.326 228.106 202.189 228.43 201.916C228.754 201.643 228.916 201.268 228.916 200.791C228.916 200.412 228.764 200.076 228.459 199.783C228.155 199.486 227.623 199.199 226.865 198.922C226.283 199.172 225.862 199.449 225.6 199.754C225.338 200.055 225.207 200.416 225.207 200.838ZM227.047 195.102C226.559 195.102 226.176 195.219 225.899 195.453C225.621 195.688 225.483 196 225.483 196.391C225.483 196.75 225.598 197.059 225.828 197.316C226.059 197.574 226.485 197.832 227.106 198.09C227.664 197.855 228.059 197.604 228.289 197.334C228.524 197.064 228.641 196.75 228.641 196.391C228.641 195.996 228.498 195.684 228.213 195.453C227.932 195.219 227.543 195.102 227.047 195.102ZM231.395 202.379C231.395 202.117 231.453 201.92 231.571 201.787C231.692 201.65 231.864 201.582 232.086 201.582C232.313 201.582 232.489 201.65 232.614 201.787C232.742 201.92 232.807 202.117 232.807 202.379C232.807 202.633 232.742 202.828 232.614 202.965C232.485 203.102 232.309 203.17 232.086 203.17C231.887 203.17 231.721 203.109 231.588 202.988C231.459 202.863 231.395 202.66 231.395 202.379ZM231.395 197.205C231.395 196.678 231.625 196.414 232.086 196.414C232.567 196.414 232.807 196.678 232.807 197.205C232.807 197.459 232.742 197.654 232.614 197.791C232.485 197.928 232.309 197.996 232.086 197.996C231.887 197.996 231.721 197.936 231.588 197.814C231.459 197.689 231.395 197.486 231.395 197.205ZM239.92 203H234.289V202.162L236.545 199.895C237.233 199.199 237.686 198.703 237.905 198.406C238.123 198.109 238.287 197.82 238.397 197.539C238.506 197.258 238.561 196.955 238.561 196.631C238.561 196.174 238.422 195.812 238.145 195.547C237.867 195.277 237.483 195.143 236.99 195.143C236.635 195.143 236.297 195.201 235.977 195.318C235.66 195.436 235.307 195.648 234.916 195.957L234.401 195.295C235.19 194.639 236.049 194.311 236.979 194.311C237.783 194.311 238.414 194.518 238.871 194.932C239.328 195.342 239.557 195.895 239.557 196.59C239.557 197.133 239.405 197.67 239.1 198.201C238.795 198.732 238.225 199.404 237.389 200.217L235.514 202.051V202.098H239.92V203ZM243.834 197.768C244.737 197.768 245.446 197.992 245.961 198.441C246.481 198.887 246.74 199.498 246.74 200.275C246.74 201.162 246.457 201.857 245.891 202.361C245.328 202.865 244.551 203.117 243.559 203.117C242.594 203.117 241.858 202.963 241.35 202.654V201.717C241.623 201.893 241.963 202.031 242.369 202.133C242.776 202.23 243.176 202.279 243.571 202.279C244.258 202.279 244.791 202.117 245.17 201.793C245.553 201.469 245.744 201 245.744 200.387C245.744 199.191 245.012 198.594 243.547 198.594C243.176 198.594 242.68 198.65 242.059 198.764L241.555 198.441L241.877 194.434H246.137V195.33H242.709L242.492 197.902C242.942 197.812 243.389 197.768 243.834 197.768Z" fill="#7589A2"/>
<path d="M277.846 203H276.897V196.895C276.897 196.387 276.912 195.906 276.944 195.453C276.862 195.535 276.77 195.621 276.668 195.711C276.567 195.801 276.102 196.182 275.274 196.854L274.758 196.186L277.026 194.434H277.846V203ZM286.741 198.09C286.741 201.441 285.444 203.117 282.85 203.117C282.397 203.117 282.037 203.078 281.772 203V202.162C282.084 202.264 282.44 202.314 282.838 202.314C283.776 202.314 284.483 202.025 284.959 201.447C285.44 200.865 285.702 199.975 285.745 198.775H285.674C285.459 199.1 285.174 199.348 284.819 199.52C284.463 199.688 284.063 199.771 283.618 199.771C282.86 199.771 282.258 199.545 281.813 199.092C281.368 198.639 281.145 198.006 281.145 197.193C281.145 196.303 281.393 195.6 281.889 195.084C282.389 194.568 283.045 194.311 283.858 194.311C284.44 194.311 284.948 194.461 285.381 194.762C285.819 195.059 286.155 195.494 286.389 196.068C286.623 196.639 286.741 197.312 286.741 198.09ZM283.858 195.143C283.299 195.143 282.868 195.322 282.563 195.682C282.258 196.041 282.106 196.541 282.106 197.182C282.106 197.744 282.246 198.188 282.528 198.512C282.809 198.832 283.237 198.992 283.811 198.992C284.166 198.992 284.493 198.92 284.789 198.775C285.09 198.631 285.327 198.434 285.498 198.184C285.67 197.934 285.756 197.672 285.756 197.398C285.756 196.988 285.676 196.609 285.516 196.262C285.356 195.914 285.131 195.641 284.842 195.441C284.557 195.242 284.229 195.143 283.858 195.143ZM288.282 202.379C288.282 202.117 288.34 201.92 288.457 201.787C288.578 201.65 288.75 201.582 288.973 201.582C289.2 201.582 289.375 201.65 289.5 201.787C289.629 201.92 289.694 202.117 289.694 202.379C289.694 202.633 289.629 202.828 289.5 202.965C289.371 203.102 289.196 203.17 288.973 203.17C288.774 203.17 288.608 203.109 288.475 202.988C288.346 202.863 288.282 202.66 288.282 202.379ZM288.282 197.205C288.282 196.678 288.512 196.414 288.973 196.414C289.453 196.414 289.694 196.678 289.694 197.205C289.694 197.459 289.629 197.654 289.5 197.791C289.371 197.928 289.196 197.996 288.973 197.996C288.774 197.996 288.608 197.936 288.475 197.814C288.346 197.689 288.282 197.486 288.282 197.205ZM296.854 198.705C296.854 200.186 296.62 201.291 296.151 202.021C295.686 202.752 294.973 203.117 294.012 203.117C293.09 203.117 292.389 202.744 291.909 201.998C291.428 201.248 291.188 200.15 291.188 198.705C291.188 197.213 291.42 196.105 291.885 195.383C292.35 194.66 293.059 194.299 294.012 194.299C294.942 194.299 295.647 194.676 296.127 195.43C296.612 196.184 296.854 197.275 296.854 198.705ZM292.172 198.705C292.172 199.951 292.319 200.859 292.612 201.43C292.905 201.996 293.371 202.279 294.012 202.279C294.661 202.279 295.129 201.992 295.418 201.418C295.711 200.84 295.858 199.936 295.858 198.705C295.858 197.475 295.711 196.574 295.418 196.004C295.129 195.43 294.661 195.143 294.012 195.143C293.371 195.143 292.905 195.426 292.612 195.992C292.319 196.555 292.172 197.459 292.172 198.705ZM303.721 198.705C303.721 200.186 303.487 201.291 303.018 202.021C302.553 202.752 301.84 203.117 300.879 203.117C299.957 203.117 299.256 202.744 298.776 201.998C298.295 201.248 298.055 200.15 298.055 198.705C298.055 197.213 298.287 196.105 298.752 195.383C299.217 194.66 299.926 194.299 300.879 194.299C301.809 194.299 302.514 194.676 302.995 195.43C303.479 196.184 303.721 197.275 303.721 198.705ZM299.039 198.705C299.039 199.951 299.186 200.859 299.479 201.43C299.772 201.996 300.239 202.279 300.879 202.279C301.528 202.279 301.996 201.992 302.286 201.418C302.578 200.84 302.725 199.936 302.725 198.705C302.725 197.475 302.578 196.574 302.286 196.004C301.996 195.43 301.528 195.143 300.879 195.143C300.239 195.143 299.772 195.426 299.479 195.992C299.186 196.555 299.039 197.459 299.039 198.705Z" fill="#7589A2"/>
</svg>
